<svg width="120" height="120" viewBox="0 0 120 120" fill="none" xmlns="http://www.w3.org/2000/svg">
<g clip-path="url(#clip0_284_7)">
<rect width="120" height="120" rx="25" fill="white"/>
<path d="M0 25C0 11.1929 11.1929 0 25 0H95C108.807 0 120 11.1929 120 25V30H0V25Z" fill="#23C065"/>
<path d="M42.2812 68.8203H46.0078C47.0703 68.8203 47.9453 68.6328 48.6328 68.2578C49.3359 67.8828 49.8516 67.3516 50.1797 66.6641C50.5234 65.9766 50.6953 65.1719 50.6953 64.25C50.6953 63.4531 50.5391 62.7422 50.2266 62.1172C49.9141 61.4922 49.4375 61 48.7969 60.6406C48.1719 60.2656 47.3594 60.0781 46.3594 60.0781C45.6406 60.0781 44.9531 60.2266 44.2969 60.5234C43.6562 60.8047 43.1328 61.2188 42.7266 61.7656C42.3203 62.2969 42.1172 62.9375 42.1172 63.6875H34.7812C34.7812 61.7812 35.2969 60.1328 36.3281 58.7422C37.375 57.3516 38.7578 56.2812 40.4766 55.5312C42.2109 54.7656 44.1016 54.3828 46.1484 54.3828C48.5078 54.3828 50.5781 54.7578 52.3594 55.5078C54.1562 56.2422 55.5469 57.3359 56.5312 58.7891C57.5312 60.2266 58.0312 62.0078 58.0312 64.1328C58.0312 65.2422 57.7656 66.3125 57.2344 67.3438C56.7188 68.3594 55.9766 69.2656 55.0078 70.0625C54.0547 70.8438 52.9141 71.4688 51.5859 71.9375C50.2734 72.3906 48.8125 72.6172 47.2031 72.6172H42.2812V68.8203ZM42.2812 74.3281V70.6016H47.2031C48.9844 70.6016 50.5781 70.8047 51.9844 71.2109C53.3906 71.6172 54.5859 72.2031 55.5703 72.9688C56.5547 73.7344 57.3047 74.6641 57.8203 75.7578C58.3359 76.8516 58.5938 78.0703 58.5938 79.4141C58.5938 81.0078 58.2812 82.4297 57.6562 83.6797C57.0312 84.9297 56.1562 85.9844 55.0312 86.8438C53.9062 87.7031 52.5859 88.3594 51.0703 88.8125C49.5547 89.25 47.9141 89.4688 46.1484 89.4688C44.7266 89.4688 43.3125 89.2734 41.9062 88.8828C40.5 88.4922 39.2266 87.8984 38.0859 87.1016C36.9453 86.2891 36.0312 85.2656 35.3438 84.0312C34.6562 82.7812 34.3125 81.2969 34.3125 79.5781H41.6484C41.6484 80.375 41.8516 81.0938 42.2578 81.7344C42.6797 82.3594 43.25 82.8594 43.9688 83.2344C44.7031 83.5938 45.5 83.7734 46.3594 83.7734C47.3906 83.7734 48.2656 83.5859 48.9844 83.2109C49.7188 82.8203 50.2734 82.2891 50.6484 81.6172C51.0391 80.9453 51.2344 80.1719 51.2344 79.2969C51.2344 78.1094 51.0234 77.1562 50.6016 76.4375C50.1953 75.7031 49.6016 75.1719 48.8203 74.8438C48.0391 74.5 47.1016 74.3281 46.0078 74.3281H42.2812ZM79.8984 54.8516V89H72.5625V63.1953L64.6406 65.6094V59.9375L79.1719 54.8516H79.8984Z" fill="#383434"/>
<rect x="20" y="11" width="8" height="8" rx="4" fill="white"/>
<rect x="92" y="11" width="8" height="8" rx="4" fill="white"/>
</g>
<defs>
<clipPath id="clip0_284_7">
<rect width="120" height="120" fill="white"/>
</clipPath>
</defs>
</svg>
