<svg width="50" height="50" viewBox="0 0 50 50" fill="none" xmlns="http://www.w3.org/2000/svg">
<circle cx="25" cy="19" r="15.5" fill="white" stroke="#23C065" stroke-width="3"/>
<path d="M21 23C21 22.9694 21.0058 22.9441 21.0254 22.9157C21.1132 22.7882 21.2342 22.6715 21.3635 22.5581C21.4996 22.4388 21.694 22.3629 21.8889 22.2831C22.1097 22.1928 22.3571 22.1155 22.6104 22.0647C22.731 22.0406 22.8194 22.0181 22.9314 22.0601C23.198 22.1601 23.4427 22.2922 23.6859 22.4118C23.9277 22.5308 24.1805 22.6391 24.4005 22.7736C24.4734 22.8181 24.5429 22.8866 24.6379 22.9136C24.6932 22.9294 24.7589 22.9319 24.8176 22.9413C24.9029 22.955 24.988 22.9692 25.0768 22.9698C25.2061 22.9708 25.4319 22.9962 25.5432 22.9468C25.7368 22.8607 25.9315 22.7712 26.0864 22.6588C26.4469 22.3971 26.9155 22.1923 27.4102 22.0341C27.5111 22.0018 27.6215 21.9832 27.7202 22.0211C27.9194 22.0978 28.0816 22.1972 28.2469 22.2982C28.2844 22.3211 28.3112 22.3514 28.3505 22.3724C28.4869 22.4454 28.6261 22.516 28.7668 22.5858C28.843 22.6236 28.9305 22.6557 29 22.6982" stroke="#FE295A" stroke-linecap="round"/>
<rect width="1" height="11.9" transform="matrix(-0.939693 0.34202 0.34202 0.939693 20.9397 22)" fill="#383434"/>
<rect width="1" height="11.9" transform="matrix(-0.939693 -0.34202 -0.34202 0.939693 30.0098 22.342)" fill="#383434"/>
<rect x="18.5" y="34.5" width="13" height="12" fill="white" stroke="#23C065" stroke-width="3"/>
<line x1="3.26144" y1="7.57379" x2="7.52349" y2="10.1882" stroke="#FE295A"/>
<line y1="-0.5" x2="5" y2="-0.5" transform="matrix(0.852411 -0.522873 -0.522873 -0.852411 3 28.6144)" stroke="#FE295A"/>
<line x1="2" y1="18.5" x2="6.27947" y2="18.5" stroke="#FE295A"/>
<line y1="-0.5" x2="5" y2="-0.5" transform="matrix(-0.852411 0.522873 0.522873 0.852411 47.262 8)" stroke="#FE295A"/>
<line x1="47.0005" y1="29.0406" x2="42.7385" y2="26.4262" stroke="#FE295A"/>
<line y1="-0.5" x2="4.27947" y2="-0.5" transform="matrix(-1 0 0 1 48.262 19)" stroke="#FE295A"/>
</svg>
