<svg width="50" height="50" viewBox="0 0 50 50" fill="none" xmlns="http://www.w3.org/2000/svg">
<g clip-path="url(#clip0_284_7)">
<path d="M19.1255 47.6851C18.6056 48.5279 17.3081 48.1779 17.2764 47.1863L16.8764 34.6652C16.855 33.9946 17.4851 33.4952 18.1322 33.6697L25.0967 35.5486C25.7438 35.7232 26.0415 36.473 25.69 37.0429L19.1255 47.6851Z" fill="#FE295A"/>
<path d="M33.1493 47.0874C33.1232 48.0852 31.8152 48.4381 31.2971 47.5871L24.6518 36.6727C24.3048 36.1028 24.6033 35.3573 25.2481 35.1833L32.2282 33.3002C32.8729 33.1263 33.5017 33.6217 33.4842 34.2898L33.1493 47.0874Z" fill="#FE295A"/>
<path d="M40.5 19.1163C40.5 27.7505 33.5508 34.7325 25 34.7325C16.4492 34.7325 9.5 27.7505 9.5 19.1163C9.5 10.482 16.4492 3.5 25 3.5C33.5508 3.5 40.5 10.482 40.5 19.1163Z" fill="white" stroke="#23C065" stroke-width="3"/>
<path d="M24.5 10.0547L26.4084 15.9682H32.584L27.5878 19.623L29.4962 25.5365L24.5 21.8817L19.5038 25.5365L21.4122 19.623L16.416 15.9682H22.5916L24.5 10.0547Z" fill="#383434"/>
</g>
<defs>
<clipPath id="clip0_284_7">
<rect width="50" height="50" fill="white"/>
</clipPath>
</defs>
</svg>
