<svg width="65" height="65" viewBox="0 0 65 65" fill="none" xmlns="http://www.w3.org/2000/svg">
<g clip-path="url(#clip0_288_28)">
<path d="M0 32.5C0 14.5507 14.5507 0 32.5 0C50.4493 0 65 14.5507 65 32.5C65 50.4493 50.4493 65 32.5 65C14.5507 65 0 50.4493 0 32.5Z" fill="#FE295A"/>
<path d="M24.6035 38.9785L27.6934 27.207H32.1777L27.2695 42H24.5762L24.6035 38.9785ZM22.6074 27.207L25.6836 38.9922L25.7109 42H23.0176L18.1094 27.207H22.6074ZM41.625 37.8848C41.625 37.6113 41.5384 37.3698 41.3652 37.1602C41.2012 36.9505 40.9004 36.7591 40.4629 36.5859C40.0345 36.4128 39.4284 36.2396 38.6445 36.0664C37.9062 35.9115 37.2181 35.7109 36.5801 35.4648C35.9421 35.2096 35.3861 34.9043 34.9121 34.5488C34.4382 34.1842 34.069 33.7559 33.8047 33.2637C33.5404 32.7624 33.4082 32.1927 33.4082 31.5547C33.4082 30.9349 33.5404 30.347 33.8047 29.791C34.0781 29.235 34.4701 28.7428 34.9805 28.3145C35.5 27.8861 36.1289 27.5488 36.8672 27.3027C37.6146 27.0566 38.4622 26.9336 39.4102 26.9336C40.7135 26.9336 41.8392 27.1387 42.7871 27.5488C43.735 27.9499 44.4642 28.515 44.9746 29.2441C45.485 29.9642 45.7402 30.7891 45.7402 31.7188H41.4746C41.4746 31.3359 41.4017 31.0033 41.2559 30.7207C41.11 30.4382 40.8867 30.2194 40.5859 30.0645C40.2852 29.9004 39.8887 29.8184 39.3965 29.8184C39.0137 29.8184 38.6764 29.8867 38.3848 30.0234C38.1022 30.151 37.8789 30.3288 37.7148 30.5566C37.5599 30.7845 37.4824 31.0488 37.4824 31.3496C37.4824 31.5592 37.528 31.7507 37.6191 31.9238C37.7194 32.0879 37.8698 32.2428 38.0703 32.3887C38.2799 32.5254 38.5488 32.6484 38.877 32.7578C39.2142 32.8672 39.6243 32.972 40.1074 33.0723C41.1374 33.2637 42.0762 33.5326 42.9238 33.8789C43.7806 34.2253 44.4642 34.7038 44.9746 35.3145C45.4941 35.9251 45.7539 36.7318 45.7539 37.7344C45.7539 38.3906 45.6035 38.9922 45.3027 39.5391C45.0111 40.0859 44.5872 40.5645 44.0312 40.9746C43.4753 41.3848 42.8099 41.7038 42.0352 41.9316C41.2604 42.1595 40.3854 42.2734 39.4102 42.2734C38.0156 42.2734 36.8353 42.0228 35.8691 41.5215C34.903 41.0202 34.1738 40.3913 33.6816 39.6348C33.1986 38.8691 32.957 38.0853 32.957 37.2832H36.9629C36.9811 37.7754 37.1042 38.1764 37.332 38.4863C37.569 38.7962 37.8743 39.0241 38.248 39.1699C38.6217 39.3066 39.041 39.375 39.5059 39.375C39.9707 39.375 40.3581 39.3112 40.668 39.1836C40.9779 39.056 41.2148 38.8828 41.3789 38.6641C41.543 38.4362 41.625 38.1764 41.625 37.8848Z" fill="white"/>
</g>
<defs>
<clipPath id="clip0_288_28">
<rect width="65" height="65" fill="white"/>
</clipPath>
</defs>
</svg>
